<?xml version="1.0" standalone="no"?>
<!DOCTYPE svg PUBLIC "-//W3C//DTD SVG 20010904//EN"
 "http://www.w3.org/TR/2001/REC-SVG-20010904/DTD/svg10.dtd">
<svg version="1.0" xmlns="http://www.w3.org/2000/svg"
 width="500.000000pt" height="500.000000pt" viewBox="0 0 500.000000 500.000000"
 preserveAspectRatio="xMidYMid meet">

<g transform="translate(0.000000,500.000000) scale(0.100000,-0.100000)"
fill="#000000" stroke="none">
<path d="M522 2503 l3 -1978 1978 -3 1977 -2 -2 1977 -3 1978 -1978 3 -1977 2
2 -1977z m3856 457 c2 -778 0 -1606 -4 -1839 l-6 -423 -234 233 c-129 129
-230 235 -224 237 5 2 10 28 10 58 l0 54 -62 -7 -62 -6 -268 273 -268 274 0
213 0 213 280 0 280 0 0 53 0 52 -542 -3 -542 -3 -153 153 c-120 120 -151 156
-147 173 6 25 -73 143 -165 245 l-63 71 -30 -27 -29 -28 -52 53 -52 53 198 -6
198 -6 -3 36 -3 36 -225 -2 -225 -1 -80 82 -80 81 243 -4 242 -3 0 38 0 37
-260 0 -260 0 0 70 0 70 238 0 237 0 0 270 0 270 -532 0 -532 0 -3 -60 -3 -60
-250 250 -250 250 1840 -2 1840 -3 3 -1415z m-3176 635 l-4 -135 137 0 137 0
72 -70 71 -70 -227 0 -228 0 0 -37 0 -38 262 0 263 0 3 -78 3 -78 -331 3 -330
3 0 -35 0 -35 436 4 436 3 364 -363 c330 -330 364 -367 364 -396 0 -31 2 -33
32 -33 29 0 57 -24 260 -227 l228 -228 0 -258 0 -258 -310 3 -310 3 0 -52 0
-53 617 0 618 0 267 -267 c148 -148 268 -271 268 -275 0 -5 -827 -7 -1837 -6
l-1838 3 -3 1615 c-2 888 0 1716 4 1839 l6 224 287 -287 286 -286 -3 -135z
m486 133 l-3 -203 -64 -3 c-58 -3 -66 -1 -93 25 l-29 27 47 24 c54 27 55 18
-27 162 -90 157 -80 148 -133 114 l-45 -29 38 -60 c21 -33 55 -91 76 -130 l38
-70 -97 95 -96 95 0 77 0 78 195 0 195 0 -2 -202z m482 -3 l0 -205 -190 0
-190 0 0 205 0 205 190 0 190 0 0 -205z m-810 -150 l54 -55 -57 0 -57 0 0 55
c0 30 1 55 3 55 1 0 27 -25 57 -55z m326 -129 c3 -8 4 -24 2 -36 -3 -20 -5
-19 -37 14 l-35 36 32 0 c19 0 35 -6 38 -14z m134 -331 l23 -25 -26 0 c-22 0
-27 5 -27 25 0 14 1 25 3 25 2 0 14 -11 27 -25z m1330 -1030 c0 -85 -1 -155
-3 -155 -1 0 -72 70 -157 155 l-155 155 158 0 157 0 0 -155z m500 -807 c0 -5
-88 -8 -195 -8 l-195 0 0 202 0 203 195 -195 c107 -107 195 -198 195 -202z"/>
<path d="M3450 3925 l0 -115 -155 0 -155 0 0 -37 0 -38 155 3 155 4 0 -111 0
-111 -165 0 -165 0 0 -37 0 -38 410 0 410 0 0 38 0 37 -195 0 -196 0 3 108 3
107 158 0 157 0 0 38 0 37 -161 0 -162 0 7 115 7 115 -56 0 -55 0 0 -115z"/>
<path d="M2820 3820 l0 -190 -60 0 c-39 0 -60 4 -60 12 0 6 7 49 16 96 8 46
13 86 11 89 -7 7 -89 24 -93 20 -2 -2 -19 -80 -38 -173 -19 -93 -46 -216 -61
-273 -14 -57 -25 -104 -23 -105 2 -1 22 -7 45 -13 43 -10 43 -10 51 21 5 17
22 79 38 139 l28 107 73 0 73 0 -2 -162 -3 -163 -75 -27 c-41 -14 -106 -34
-145 -44 -38 -9 -71 -18 -72 -18 -3 -2 37 -109 42 -114 2 -2 57 24 123 57 66
34 123 61 126 61 3 0 6 -117 6 -260 l0 -260 50 0 50 0 2 287 3 287 105 48
c105 47 122 64 101 97 -8 12 -24 8 -95 -23 -47 -20 -92 -39 -101 -42 -13 -5
-15 12 -15 135 l0 141 95 0 95 0 0 40 0 40 -95 0 -95 0 0 190 0 190 -50 0 -50
0 0 -190z"/>
<path d="M3600 3335 l0 -65 -240 0 -240 0 0 -37 0 -38 240 3 240 3 -2 -223 -3
-223 -87 -3 -87 -3 15 -34 c8 -19 14 -46 14 -61 l0 -27 65 6 c87 8 149 36 172
79 16 29 18 63 21 262 l3 228 120 -3 119 -4 0 38 0 37 -120 0 -120 0 0 65 0
65 -55 0 -55 0 0 -65z"/>
<path d="M3206 3116 l-39 -34 83 -96 c46 -53 84 -96 86 -96 9 0 74 63 74 71 0
11 -151 189 -159 189 -4 -1 -24 -16 -45 -34z"/>
<path d="M1848 2910 l-37 -30 76 -113 c42 -61 77 -113 78 -115 2 -2 24 9 49
25 l45 29 -77 114 c-42 62 -82 115 -87 117 -6 2 -27 -10 -47 -27z"/>
<path d="M1120 2803 c-36 -70 -66 -130 -67 -133 -3 -6 72 -50 85 -50 10 0 142
250 142 268 0 9 -69 42 -88 42 -4 0 -37 -57 -72 -127z"/>
<path d="M1495 2899 c-16 -10 -34 -20 -38 -22 -7 -2 103 -211 122 -230 10 -10
91 29 91 43 0 20 -122 230 -133 229 -7 0 -25 -9 -42 -20z"/>
<path d="M1585 2385 l-26 -46 26 -20 c33 -27 62 -83 79 -159 l14 -60 -274 0
-274 0 0 -542 0 -543 57 3 58 4 -3 494 -3 494 220 0 c121 0 222 -4 225 -8 8
-13 -68 -233 -103 -299 -57 -107 -160 -218 -285 -309 l-29 -21 46 -45 46 -46
65 54 c116 96 240 265 298 406 12 32 26 58 29 58 3 0 19 -28 35 -62 50 -106
143 -239 230 -327 l83 -84 36 31 c19 18 43 32 51 32 24 0 14 13 -45 63 -70 60
-141 144 -198 235 -47 75 -115 230 -128 290 l-7 32 214 -2 213 -3 0 -427 c0
-332 -3 -430 -13 -440 -8 -8 -41 -12 -102 -10 l-90 2 20 -33 c11 -17 20 -47
20 -64 l0 -33 53 0 c117 0 194 45 216 125 7 26 11 202 11 507 l0 468 -282 2
-281 3 -14 69 c-8 38 -26 92 -40 120 -23 47 -98 136 -114 136 -4 0 -19 -20
-34 -45z"/>
<path d="M1995 3866 c-20 -35 -121 -196 -149 -238 l-18 -27 39 -17 c21 -10 41
-19 44 -21 6 -4 110 139 161 222 20 33 36 60 35 61 -1 0 -23 12 -48 26 l-46
25 -18 -31z"/>
</g>
</svg>
